# xmcd
#
# Track frame offsets: 
#        150
#        22044
#        37710
#        56327
#        76332
#        98122
#        114962
#        134215
#        152677
#        166877
#        189390
#        204965
#
# Disc length: 3005 seconds
#
# Revision: 6
# Processed by: cddbd v1.5.1PL0 Copyright (c) Steve Scherf et al.
# Submitted via: ExactAudioCopy v0.90b4
#
DISCID=8e0bbb0c
DTITLE=Louise Hoffsten - Beautiful, But Why?
DYEAR=1999
DGENRE=Blues
TTITLE0=Beady Blue Eyes
TTITLE1=Too Happy For The Blues
TTITLE2=Try A Little Harder
TTITLE3=Nowhere In This World
TTITLE4=Don't Take
TTITLE5=Fire Is A Good Thing
TTITLE6=Sweet Poison
TTITLE7=Please Remind Me
TTITLE8=From Green To Blue
TTITLE9=Silence
TTITLE10=Beautiful, But Why?
TTITLE11=Together Alone
EXTD=
EXTT0=
EXTT1=
EXTT2=
EXTT3=
EXTT4=
EXTT5=
EXTT6=
EXTT7=
EXTT8=
EXTT9=
EXTT10=
EXTT11=
PLAYORDER=
